<?xml version="1.0" encoding="UTF-8"?>
<svg width="128" height="128" viewBox="0 0 128 128" fill="none" xmlns="http://www.w3.org/2000/svg">
  <!-- 背景圆形 -->
  <circle cx="64" cy="64" r="64" fill="#24292e"/>
  
  <!-- 雷达扫描线 -->
  <path d="M64 64L120 64" stroke="#2188ff" stroke-width="5" stroke-linecap="round">
    <animateTransform
      attributeName="transform"
      type="rotate"
      from="0 64 64"
      to="360 64 64"
      dur="3s"
      repeatCount="indefinite"/>
  </path>
  
  <!-- 雷达圆圈 -->
  <g stroke="#2188ff" fill="none">
    <circle cx="64" cy="64" r="48" stroke-width="2.5" opacity="0.3"/>
    <circle cx="64" cy="64" r="36" stroke-width="2.5" opacity="0.5"/>
    <circle cx="64" cy="64" r="24" stroke-width="2.5" opacity="0.7"/>
  </g>
  
  <!-- GitHub 章鱼猫 -->
  <path d="M64 28C44.7 28 29 43.7 29 63C29 78.6 39.2 91.8 53.4 96C55.3 96.3 55.9 95.1 55.9 94.1C55.9 93.2 55.9 90.7 55.9 87.8C46 90 43.8 83.1 43.8 83.1C42 78.5 39.4 77.3 39.4 77.3C35.7 74.9 39.6 75 39.6 75C43.5 75.2 45.6 78.8 45.6 78.8C49.1 84.8 54.9 83.2 55.7 82.3C56.1 79.7 57.1 77.9 58.2 77C50.3 76.1 42 72.5 42 59.4C42 55.3 43.5 52 45.8 49.3C45.4 48.4 44 44.2 46.1 39.1C46.1 39.1 49.3 38.1 55.8 42.5C58.5 41.6 61.4 41.1 64.2 41.1C67 41.1 69.9 41.6 72.6 42.5C79.1 38.1 82.3 39.1 82.3 39.1C84.4 44.2 83 48.4 82.6 49.3C84.9 52 86.4 55.3 86.4 59.4C86.4 72.6 78.1 76.1 70.1 76.9C71.4 78 72.6 80.2 72.6 83.6C72.6 88.4 72.5 92.3 72.5 94.1C72.5 95.1 73.1 96.3 75 96C89.2 91.8 99.4 78.6 99.4 63C99.4 43.7 83.7 28 64 28Z"
        fill="rgba(255, 255, 255, 0.95)"/>
</svg>
